<?xml version="1.0" encoding="UTF-8" standalone="no"?>
<svg
   xmlns:dc="http://purl.org/dc/elements/1.1/"
   xmlns:cc="http://creativecommons.org/ns#"
   xmlns:rdf="http://www.w3.org/1999/02/22-rdf-syntax-ns#"
   xmlns:svg="http://www.w3.org/2000/svg"
   xmlns="http://www.w3.org/2000/svg"
   width="16"
   height="16"
   version="1.1"
   id="svg4">
  <metadata
     id="metadata10">
    <rdf:RDF>
      <cc:Work
         rdf:about="">
        <dc:format>image/svg+xml</dc:format>
        <dc:type
           rdf:resource="http://purl.org/dc/dcmitype/StillImage" />
        <dc:title></dc:title>
      </cc:Work>
    </rdf:RDF>
  </metadata>
  <defs
     id="defs8" />
  <g
     transform="matrix(1.1,0,0,1.1,-0.3,0.3499989)"
     id="text4521"
     style="font-style:normal;font-weight:normal;font-size:26.59740067px;line-height:1.25;font-family:sans-serif;letter-spacing:0px;word-spacing:0px;fill:#666666;fill-opacity:1;stroke:none;stroke-width:0.90909094"
     aria-label="px">
    <path
       id="path4523"
       style="font-style:normal;font-variant:normal;font-weight:bold;font-stretch:normal;font-size:8.86580086px;font-family:'Open Sans';-inkscape-font-specification:'Open Sans Bold';fill:#666666;fill-opacity:1;stroke-width:0.90909094"
       d="m 5.6580086,9.4567106 q -0.8528139,0 -1.3376624,-0.6190476 h -0.069264 q 0.069264,0.6060606 0.069264,0.7012987 V 11.500001 H 2.9999999 V 4.5303037 H 4.073593 l 0.1861472,0.6277056 h 0.060606 q 0.4632035,-0.7186147 1.3722944,-0.7186147 0.8571429,0 1.3419913,0.6623377 0.4848485,0.6623376 0.4848485,1.8398268 0,0.7748918 -0.2294372,1.3463204 Q 7.064935,8.859308 6.6450216,9.1580093 6.2251081,9.4567106 5.6580086,9.4567106 Z M 5.2683982,5.4956717 q -0.4891775,0 -0.7142857,0.3030303 -0.2251083,0.2987013 -0.2337663,0.991342 v 0.1428571 q 0,0.7792208 0.2294373,1.1168831 0.2337662,0.3376624 0.7359307,0.3376624 0.8874459,0 0.8874459,-1.4632035 0,-0.7142857 -0.2207792,-1.0692641 Q 5.7359306,5.4956717 5.2683982,5.4956717 Z" />
    <path
       id="path4525"
       style="font-style:normal;font-variant:normal;font-weight:bold;font-stretch:normal;font-size:8.86580086px;font-family:'Open Sans';-inkscape-font-specification:'Open Sans Bold';fill:#666666;fill-opacity:1;stroke-width:0.90909094"
       d="M 9.6017316,6.8982691 8.0432901,4.5303037 h 1.4978354 l 0.9393935,1.5411255 0.948052,-1.5411255 h 1.497836 L 11.350649,6.8982691 13,9.3701305 H 11.497836 L 10.480519,7.7121219 9.4588745,9.3701305 H 7.961039 Z" />
  </g>
</svg>
