<?xml version="1.0" encoding="UTF-8" standalone="no"?>
<svg
   xmlns:dc="http://purl.org/dc/elements/1.1/"
   xmlns:cc="http://creativecommons.org/ns#"
   xmlns:rdf="http://www.w3.org/1999/02/22-rdf-syntax-ns#"
   xmlns:svg="http://www.w3.org/2000/svg"
   xmlns="http://www.w3.org/2000/svg"
   xmlns:sodipodi="http://sodipodi.sourceforge.net/DTD/sodipodi-0.dtd"
   xmlns:inkscape="http://www.inkscape.org/namespaces/inkscape"
   width="16"
   height="16"
   version="1.1"
   id="svg4"
   sodipodi:docname="input-degrees-symbolic.svg"
   inkscape:version="0.92.4 (unknown)">
  <sodipodi:namedview
     pagecolor="#ffffff"
     bordercolor="#666666"
     borderopacity="1"
     objecttolerance="10"
     gridtolerance="10"
     guidetolerance="10"
     inkscape:pageopacity="0"
     inkscape:pageshadow="2"
     inkscape:window-width="1920"
     inkscape:window-height="1017"
     id="namedview8"
     showgrid="false"
     inkscape:zoom="14.75"
     inkscape:cx="3.9646915"
     inkscape:cy="16.047126"
     inkscape:window-x="0"
     inkscape:window-y="30"
     inkscape:window-maximized="1"
     inkscape:current-layer="text821" />
  <metadata
     id="metadata10">
    <rdf:RDF>
      <cc:Work
         rdf:about="">
        <dc:format>image/svg+xml</dc:format>
        <dc:type
           rdf:resource="http://purl.org/dc/dcmitype/StillImage" />
        <dc:title />
      </cc:Work>
    </rdf:RDF>
  </metadata>
  <defs
     id="defs8" />
  <g
     transform="matrix(1.1,0,0,1.1,-0.3,0.3499989)"
     id="text4521"
     style="font-style:normal;font-weight:normal;font-size:26.59740067px;line-height:1.25;font-family:sans-serif;letter-spacing:0px;word-spacing:0px;fill:#666666;fill-opacity:1;stroke:none;stroke-width:0.90909094"
     aria-label="px">
    <g
       aria-label="°"
       style="font-style:normal;font-weight:normal;font-size:10.909091px;line-height:1.25;font-family:sans-serif;letter-spacing:0px;word-spacing:0px;fill:#666666;fill-opacity:1;stroke:none;stroke-width:0.82644629"
       id="text821">
      <path
         d="m 8.4545453,4.2130691 q 0,-0.4900568 0.2450284,-0.9161932 0.2450285,-0.4261364 0.6711648,-0.6764915 0.4261364,-0.2503551 0.9268465,-0.2503551 0.490057,0 0.916193,0.2450284 0.431463,0.2450284 0.676492,0.6764915 0.250355,0.4314631 0.250355,0.9215199 0,0.4953835 -0.250355,0.9268466 -0.245029,0.4261364 -0.671165,0.6658381 -0.426136,0.2397017 -0.92152,0.2397017 -0.772372,0 -1.3103692,-0.5273438 Q 8.4545453,4.9854413 8.4545453,4.2130691 Z m 1.0174006,0 q 0,0.3409091 0.234375,0.5806108 0.2397017,0.2397017 0.5912641,0.2397017 0.351563,0 0.591264,-0.2450284 0.239702,-0.2450284 0.239702,-0.5752841 0,-0.3355824 -0.245028,-0.5859375 -0.239702,-0.2503551 -0.585938,-0.2503551 -0.340909,0 -0.5859374,0.2450284 -0.2397017,0.2450284 -0.2397017,0.5912642 z"
         style="font-style:normal;font-variant:normal;font-weight:bold;font-stretch:normal;font-size:10.909091px;font-family:'Open Sans';-inkscape-font-specification:'Open Sans, Bold';font-variant-ligatures:normal;font-variant-caps:normal;font-variant-numeric:normal;font-feature-settings:normal;text-align:start;writing-mode:lr-tb;text-anchor:start;fill:#666666;fill-opacity:1;stroke-width:0.82644629"
         id="path823" />
    </g>
  </g>
</svg>
