<?xml version="1.0" encoding="UTF-8" standalone="no"?>
<svg
   xmlns:dc="http://purl.org/dc/elements/1.1/"
   xmlns:cc="http://creativecommons.org/ns#"
   xmlns:rdf="http://www.w3.org/1999/02/22-rdf-syntax-ns#"
   xmlns:svg="http://www.w3.org/2000/svg"
   xmlns="http://www.w3.org/2000/svg"
   id="svg4"
   version="1.1"
   height="16"
   width="16">
  <metadata
     id="metadata10">
    <rdf:RDF>
      <cc:Work
         rdf:about="">
        <dc:format>image/svg+xml</dc:format>
        <dc:type
           rdf:resource="http://purl.org/dc/dcmitype/StillImage" />
        <dc:title></dc:title>
      </cc:Work>
    </rdf:RDF>
  </metadata>
  <defs
     id="defs8" />
  <g
     id="text818"
     style="font-style:normal;font-weight:normal;font-size:38.82196808px;line-height:1.25;font-family:sans-serif;letter-spacing:0px;word-spacing:0px;fill:#666666;fill-opacity:1;stroke:none;stroke-width:0.99999994"
     transform="scale(0.9909888,1.0090931)"
     aria-label="%">
    <path
       id="path820"
       style="font-style:normal;font-variant:normal;font-weight:600;font-stretch:normal;font-size:15.52878761px;font-family:'Open Sans';-inkscape-font-specification:'Open Sans Semi-Bold';fill:#666666;fill-opacity:1;stroke-width:0.99999994"
       d="m 4.259422,6.2861531 q 0,0.9414833 0.1832417,1.4027469 0.1832417,0.4612636 0.6002746,0.4612636 0.8340657,0 0.8340657,-1.8640105 0,-1.8640106 -0.8340657,-1.8640106 -0.4170329,0 -0.6002746,0.4612637 Q 4.259422,5.3446698 4.259422,6.2861531 Z m 2.8434059,-0.012638 q 0,1.4532964 -0.5244504,2.1862633 -0.5181317,0.7266481 -1.5354392,0.7266481 -0.9604394,0 -1.4912085,-0.7519229 Q 3.0272794,7.676262 3.0272794,6.2735151 q 0,-2.8876367 2.0156589,-2.8876367 0.9920327,0 1.5228019,0.7519229 0.5370877,0.7456043 0.5370877,2.1357138 z m 3.1719771,3.7027467 q 0,0.9414832 0.183242,1.4090652 0.18956,0.467582 0.606593,0.467582 0.827747,0 0.827747,-1.8766472 0,-1.8513734 -0.827747,-1.8513734 -0.417033,0 -0.606593,0.4549449 -0.183242,0.4549449 -0.183242,1.3964285 z m 2.843406,0 q 0,1.4532962 -0.52445,2.1799452 -0.524451,0.726648 -1.529121,0.726648 -0.960439,0 -1.4912084,-0.745604 -0.5307691,-0.751924 -0.5307691,-2.1609892 0,-2.8876369 2.0219775,-2.8876369 0.973077,0 1.510165,0.7456041 0.543406,0.7456043 0.543406,2.1420328 z M 11.241563,3.5185712 6.1171138,12.756482 H 4.89129 l 5.124449,-9.2379108 z" />
  </g>
</svg>
