<?xml version="1.0" encoding="UTF-8"?>
<svg width="17px" height="17px" viewBox="0 0 17 17" version="1.1" xmlns="http://www.w3.org/2000/svg" xmlns:xlink="http://www.w3.org/1999/xlink">
    <!-- Generator: Sketch 47.1 (45422) - http://www.bohemiancoding.com/sketch -->
    <title>pencil copy 2</title>
    <desc>Created with Sketch.</desc>
    <defs></defs>
    <g id="Icons" stroke="none" stroke-width="1" fill="none" fill-rule="evenodd">
        <g id="Artboard" transform="translate(-343.000000, -401.000000)">
            <g id="pencil-copy-2" transform="translate(343.000000, 401.000000)">
                <path d="M1.50960351,11.8959114 L0.674353189,16.3007711 L4.99521832,15.3938228 L13.5458867,7.05716619 C13.7417356,6.86621916 13.7430272,6.55047612 13.5515715,6.35983137 L10.6694192,3.48988793 C10.4722576,3.29356148 10.1505919,3.29378572 9.9527801,3.49070789 L1.50960351,11.8959114 Z" id="Path-4" stroke="#5E5E5E"></path>
                <path d="M4.55555556,11.860483 L10.375044,6.04099449" id="Path-12" stroke="#5E5E5E"></path>
                <path d="M11.7034441,2.03243011 L11.7030014,2.0329065 C11.703155,2.03275699 11.7033025,2.03259793 11.7034441,2.03243011 Z M11.7114072,2.02385947 L15.084952,5.39740422 C15.0864967,5.39481067 15.0887889,5.39187161 15.0919832,5.3885251 C15.1742097,5.30858484 15.3118943,5.14725234 15.45053,4.92947301 C15.621919,4.6602426 15.7403347,4.38104018 15.784776,4.10716823 C15.8333321,3.8079386 13.3389606,1.27857442 13.0330912,1.30821551 C12.7184622,1.33870547 12.4173301,1.46185362 12.1398215,1.65095682 C11.9414186,1.7861549 11.8015467,1.91947489 11.7370436,1.99626743 L11.7114072,2.02385947 Z" id="Path-13" stroke="#5E5E5E"></path>
                <polygon id="Path-14" fill="#5E5E5E" points="1 14 2.70301649 15.7630208 1 15.8304036"></polygon>
            </g>
        </g>
    </g>
</svg>