<?xml version="1.0" encoding="UTF-8" standalone="no"?>
<svg
   xmlns:dc="http://purl.org/dc/elements/1.1/"
   xmlns:cc="http://creativecommons.org/ns#"
   xmlns:rdf="http://www.w3.org/1999/02/22-rdf-syntax-ns#"
   xmlns:svg="http://www.w3.org/2000/svg"
   xmlns="http://www.w3.org/2000/svg"
   xmlns:sodipodi="http://sodipodi.sourceforge.net/DTD/sodipodi-0.dtd"
   xmlns:inkscape="http://www.inkscape.org/namespaces/inkscape"
   width="16"
   height="16"
   viewBox="0 0 16 16"
   version="1.1"
   id="svg20"
   sodipodi:docname="gear-symbolic.svg"
   inkscape:version="0.92.3 (unknown)">
  <metadata
     id="metadata24">
    <rdf:RDF>
      <cc:Work
         rdf:about="">
        <dc:format>image/svg+xml</dc:format>
        <dc:type
           rdf:resource="http://purl.org/dc/dcmitype/StillImage" />
        <dc:title>gear</dc:title>
      </cc:Work>
    </rdf:RDF>
  </metadata>
  <sodipodi:namedview
     pagecolor="#ffffff"
     bordercolor="#666666"
     borderopacity="1"
     objecttolerance="10"
     gridtolerance="10"
     guidetolerance="10"
     inkscape:pageopacity="0"
     inkscape:pageshadow="2"
     inkscape:window-width="1920"
     inkscape:window-height="1017"
     id="namedview22"
     showgrid="false"
     inkscape:zoom="16.857143"
     inkscape:cx="-1.809322"
     inkscape:cy="5.3983051"
     inkscape:window-x="0"
     inkscape:window-y="30"
     inkscape:window-maximized="1"
     inkscape:current-layer="svg20" />
  <!-- Generator: Sketch 47.1 (45422) - http://www.bohemiancoding.com/sketch -->
  <title
     id="title2">gear</title>
  <desc
     id="desc4">Created with Sketch.</desc>
  <defs
     id="defs6" />
  <g
     style="fill:#666666;fill-rule:evenodd;stroke:none;stroke-width:1;fill-opacity:1"
     transform="translate(-103,-367)"
     id="Artboard">
    <g
       transform="translate(104,368)"
       id="gear"
       style="fill:#666666;fill-opacity:1">
      <path
         inkscape:connector-curvature="0"
         id="Combined-Shape"
         d="M 8,3.9284049 V 0 H 6 V 3.9585169 C 6.327934,3.8457551 6.6798421,3.7845364 7.0460485,3.7845364 7.3782017,3.7845364 7.6985921,3.8348991 8,3.9284049 Z M 8,10.071595 V 14 H 6 v -3.958517 c 0.327934,0.112762 0.6798421,0.173981 1.0460485,0.173981 0.3321532,0 0.6525436,-0.05036 0.9539515,-0.143869 z"
         style="fill:#666666;fill-opacity:1" />
      <path
         inkscape:connector-curvature="0"
         id="path9"
         d="M 3.9891223,6 H 0 V 8 H 3.9891223 C 3.8862253,7.6852514 3.8305849,7.3491234 3.8305849,7 c 0,-0.3491234 0.05564,-0.6852514 0.1585374,-1 z M 10.102975,6 H 14 v 2 h -3.897025 c 0.102897,-0.3147486 0.158537,-0.6508766 0.158537,-1 0,-0.3491234 -0.05564,-0.6852514 -0.158537,-1 z"
         style="fill:#666666;fill-opacity:1" />
      <path
         inkscape:connector-curvature="0"
         id="path11"
         d="M 4.1621268,8.4236596 1.3431457,11.242641 2.7573593,12.656854 5.5613156,9.852898 C 4.9567042,9.5375964 4.4648568,9.0357324 4.1621268,8.4236596 Z M 8.4697082,4.1160783 11.242641,1.3431457 12.656854,2.7573593 9.8989465,5.5152671 C 9.5836449,4.9106557 9.081781,4.4188083 8.4697082,4.1160783 Z"
         style="fill:#666666;fill-opacity:1" />
      <path
         inkscape:connector-curvature="0"
         id="path13"
         d="M 8.4697082,9.8839217 11.242641,12.656854 12.656854,11.242641 9.8989465,8.4847329 C 9.5836449,9.0893443 9.081781,9.5811917 8.4697082,9.8839217 Z M 4.1621268,5.5763404 1.3431457,2.7573593 2.7573593,1.3431457 5.5613156,4.147102 C 4.9567042,4.4624036 4.4648568,4.9642676 4.1621268,5.5763404 Z"
         style="fill:#666666;fill-opacity:1" />
      <path
         inkscape:connector-curvature="0"
         id="path15"
         d="M 7.0460485,11.976976 C 4.2973407,11.976976 2.0690728,9.7487078 2.0690728,7 c 0,-2.7487078 2.2282679,-4.9769757 4.9769757,-4.9769757 2.7487078,0 4.9769755,2.2282679 4.9769755,4.9769757 0,2.7487078 -2.2282677,4.976976 -4.9769755,4.976976 z m 0,-2.1077321 c 1.5846397,0 2.869244,-1.2846042 2.869244,-2.8692439 0,-1.5846397 -1.2846043,-2.8692439 -2.869244,-2.8692439 -1.5846396,0 -2.8692439,1.2846042 -2.8692439,2.8692439 0,1.5846397 1.2846043,2.8692439 2.8692439,2.8692439 z"
         style="fill:#666666;fill-opacity:1" />
    </g>
  </g>
</svg>
