<?xml version="1.0" encoding="UTF-8" standalone="no"?>
<!-- Created with Inkscape (http://www.inkscape.org/) -->

<svg
   xmlns:dc="http://purl.org/dc/elements/1.1/"
   xmlns:cc="http://creativecommons.org/ns#"
   xmlns:rdf="http://www.w3.org/1999/02/22-rdf-syntax-ns#"
   xmlns:svg="http://www.w3.org/2000/svg"
   xmlns="http://www.w3.org/2000/svg"
   xmlns:xlink="http://www.w3.org/1999/xlink"
   xmlns:sodipodi="http://sodipodi.sourceforge.net/DTD/sodipodi-0.dtd"
   xmlns:inkscape="http://www.inkscape.org/namespaces/inkscape"
   width="24"
   height="24"
   viewBox="0 0 6.3499999 6.3500002"
   version="1.1"
   id="svg8"
   inkscape:version="0.92.3 (unknown)"
   sodipodi:docname="layout-panels-lineart.svg">
  <defs
     id="defs2">
    <linearGradient
       inkscape:collect="always"
       id="linearGradient829">
      <stop
         style="stop-color:#cd9ef7;stop-opacity:1"
         offset="0"
         id="stop825" />
      <stop
         style="stop-color:#a56de2;stop-opacity:1"
         offset="1"
         id="stop827" />
    </linearGradient>
    <linearGradient
       inkscape:collect="always"
       xlink:href="#linearGradient829"
       id="linearGradient841"
       x1="3.175"
       y1="291.17914"
       x2="3.175"
       y2="296.47083"
       gradientUnits="userSpaceOnUse"
       gradientTransform="matrix(3.7795276,0,0,3.7795276,0,-1098.5196)" />
  </defs>
  <sodipodi:namedview
     id="base"
     pagecolor="#ffffff"
     bordercolor="#666666"
     borderopacity="1.0"
     inkscape:pageopacity="0.0"
     inkscape:pageshadow="2"
     inkscape:zoom="15.839192"
     inkscape:cx="14.167118"
     inkscape:cy="12.485179"
     inkscape:document-units="px"
     inkscape:current-layer="layer1"
     showgrid="true"
     units="px"
     inkscape:showpageshadow="false"
     inkscape:window-width="1920"
     inkscape:window-height="1017"
     inkscape:window-x="0"
     inkscape:window-y="30"
     inkscape:window-maximized="1">
    <inkscape:grid
       type="xygrid"
       id="grid846" />
  </sodipodi:namedview>
  <metadata
     id="metadata5">
    <rdf:RDF>
      <cc:Work
         rdf:about="">
        <dc:format>image/svg+xml</dc:format>
        <dc:type
           rdf:resource="http://purl.org/dc/dcmitype/StillImage" />
        <dc:title />
      </cc:Work>
    </rdf:RDF>
  </metadata>
  <g
     inkscape:label="Layer 1"
     inkscape:groupmode="layer"
     id="layer1"
     transform="translate(0,-290.64998)">
    <path
       style="opacity:1;fill:url(#linearGradient841);fill-opacity:1;fill-rule:nonzero;stroke:none;stroke-width:1;stroke-miterlimit:4;stroke-dasharray:none;stroke-opacity:1"
       d="M 4 2 C 2.8919822 2 2 2.8919822 2 4 L 2 20 C 2 21.108018 2.8919822 22 4 22 L 20 22 C 21.108018 22 22 21.108018 22 20 L 22 4 C 22 2.8919822 21.108018 2 20 2 L 4 2 z M 4 3 L 20 3 C 20.554009 3 21 3.4459907 21 4 L 21 7 L 3 7 L 3 4 C 3 3.4459907 3.4459907 3 4 3 z M 3 8 L 6 8 L 6 21 L 4 21 C 3.4459907 21 3 20.554009 3 20 L 3 8 z M 7 8 L 17 8 L 17 21 L 7 21 L 7 8 z M 18 8 L 21 8 L 21 20 C 21 20.554009 20.554009 21 20 21 L 18 21 L 18 8 z "
       transform="matrix(0.26458334,0,0,0.26458334,0,290.64998)"
       id="rect833" />
  </g>
</svg>
