<?xml version="1.0" encoding="UTF-8" standalone="no"?>
<svg
   xmlns:dc="http://purl.org/dc/elements/1.1/"
   xmlns:cc="http://creativecommons.org/ns#"
   xmlns:rdf="http://www.w3.org/1999/02/22-rdf-syntax-ns#"
   xmlns:svg="http://www.w3.org/2000/svg"
   xmlns="http://www.w3.org/2000/svg"
   xmlns:xlink="http://www.w3.org/1999/xlink"
   xmlns:sodipodi="http://sodipodi.sourceforge.net/DTD/sodipodi-0.dtd"
   xmlns:inkscape="http://www.inkscape.org/namespaces/inkscape"
   width="18px"
   height="18px"
   viewBox="0 0 18 18"
   version="1.1"
   id="svg2"
   inkscape:version="0.91 r13725"
   sodipodi:docname="artboard.svg">
  <metadata
     id="metadata40">
    <rdf:RDF>
      <cc:Work
         rdf:about="">
        <dc:format>image/svg+xml</dc:format>
        <dc:type
           rdf:resource="http://purl.org/dc/dcmitype/StillImage" />
      </cc:Work>
    </rdf:RDF>
  </metadata>
  <sodipodi:namedview
     pagecolor="#ffffff"
     bordercolor="#666666"
     borderopacity="1"
     objecttolerance="10"
     gridtolerance="10"
     guidetolerance="10"
     inkscape:pageopacity="0"
     inkscape:pageshadow="2"
     inkscape:window-width="1852"
     inkscape:window-height="938"
     id="namedview38"
     showgrid="false"
     showguides="false"
     inkscape:zoom="13.111111"
     inkscape:cx="4.8315526"
     inkscape:cy="4.0208838"
     inkscape:window-x="0"
     inkscape:window-y="30"
     inkscape:window-maximized="0"
     inkscape:current-layer="artboard" />
  <!-- Generator: Sketch 47.1 (45422) - http://www.bohemiancoding.com/sketch -->
  <title
     id="title4">artboard</title>
  <desc
     id="desc6">Created with Sketch.</desc>
  <defs
     id="defs8">
    <path
       d="M13.5,13 L16,13 L16,14 L14,14 L14,16 L13,16 L13,13 L13.5,13 Z"
       id="path-1" />
    <path
       d="M13.5,0 L16,0 L16,1 L14,1 L14,3 L13,3 L13,0 L13.5,0 Z"
       id="path-2" />
    <path
       d="M0.5,13 L3,13 L3,14 L1,14 L1,16 L0,16 L0,13 L0.5,13 Z"
       id="path-3" />
    <path
       d="M0.5,0 L3,0 L3,1 L1,1 L1,3 L0,3 L0,0 L0.5,0 Z"
       id="path-4" />
  </defs>
  <g
     id="Icons"
     stroke="none"
     stroke-width="1"
     fill="none"
     fill-rule="evenodd">
    <g
       id="Artboard"
       transform="translate(-87.000000, -400.000000)">
      <g
         id="artboard"
         transform="translate(88.000000, 401.000000)">
        <use
           height="100%"
           width="100%"
           y="0"
           x="0"
           style="fill:#5e5e5e;fill-rule:evenodd"
           id="use19"
           xlink:href="#path-1" />
        <use
           height="100%"
           width="100%"
           y="0"
           x="0"
           style="fill:#5e5e5e;fill-rule:evenodd"
           id="use24"
           xlink:href="#path-2"
           transform="matrix(0,-1,1,0,13,16)" />
        <use
           height="100%"
           width="100%"
           y="0"
           x="0"
           style="fill:#5e5e5e;fill-rule:evenodd"
           id="use29"
           xlink:href="#path-3"
           transform="matrix(-1,0,0,1,3,0)" />
        <use
           height="100%"
           width="100%"
           y="0"
           x="0"
           style="fill:#5e5e5e;fill-rule:evenodd"
           id="use34"
           xlink:href="#path-4"
           transform="matrix(0,-1,-1,0,3,3)" />
        <g
           id="g4268"
           transform="translate(31.172623,-3.4966096)">
          <path
             transform="translate(-1,-1)"
             id="path4266"
             d="m -27.694915,17.008474 -10e-7,-8.9999999"
             style="fill:none;stroke:#5e5e5e"
             inkscape:connector-curvature="0" />
          <path
             transform="translate(-1,-1)"
             id="path4261"
             d="m -17.694916,18.008473 -9,1e-6"
             style="fill:none;stroke:#5e5e5e"
             inkscape:connector-curvature="0" />
          <path
             transform="translate(-1,-1)"
             id="path4256"
             d="m -16.694916,8.0084741 0,8.9999999"
             style="fill:none;stroke:#5e5e5e"
             inkscape:connector-curvature="0" />
          <path
             transform="translate(-1,-1)"
             id="Rectangle-4-5"
             d="m -26.694915,7.0084741 8.999999,2e-7"
             style="fill:none;stroke:#5e5e5e"
             inkscape:connector-curvature="0" />
        </g>
      </g>
    </g>
  </g>
</svg>
