<?xml version="1.0" encoding="UTF-8" standalone="no"?>
<svg
   xmlns:dc="http://purl.org/dc/elements/1.1/"
   xmlns:cc="http://creativecommons.org/ns#"
   xmlns:rdf="http://www.w3.org/1999/02/22-rdf-syntax-ns#"
   xmlns:svg="http://www.w3.org/2000/svg"
   xmlns="http://www.w3.org/2000/svg"
   xmlns:sodipodi="http://sodipodi.sourceforge.net/DTD/sodipodi-0.dtd"
   xmlns:inkscape="http://www.inkscape.org/namespaces/inkscape"
   width="20"
   height="20"
   viewBox="0 0 20 20"
   version="1.1"
   id="svg11"
   sodipodi:docname="eye-not.svg"
   inkscape:version="0.92.2 (unknown)">
  <metadata
     id="metadata15">
    <rdf:RDF>
      <cc:Work
         rdf:about="">
        <dc:format>image/svg+xml</dc:format>
        <dc:type
           rdf:resource="http://purl.org/dc/dcmitype/StillImage" />
        <dc:title>eye</dc:title>
      </cc:Work>
    </rdf:RDF>
  </metadata>
  <sodipodi:namedview
     pagecolor="#ffffff"
     bordercolor="#666666"
     borderopacity="1"
     objecttolerance="10"
     gridtolerance="10"
     guidetolerance="10"
     inkscape:pageopacity="0"
     inkscape:pageshadow="2"
     inkscape:window-width="1920"
     inkscape:window-height="1017"
     id="namedview13"
     showgrid="true"
     inkscape:showpageshadow="false"
     inkscape:pagecheckerboard="false"
     inkscape:zoom="43.982042"
     inkscape:cx="8.8790059"
     inkscape:cy="8.8189242"
     inkscape:window-x="0"
     inkscape:window-y="30"
     inkscape:window-maximized="1"
     inkscape:current-layer="Icons">
    <inkscape:grid
       type="xygrid"
       id="grid17" />
  </sodipodi:namedview>
  <!-- Generator: Sketch 47.1 (45422) - http://www.bohemiancoding.com/sketch -->
  <title
     id="title2">eye</title>
  <desc
     id="desc4">Created with Sketch.</desc>
  <defs
     id="defs6" />
  <g
     id="Icons"
     style="fill:none;fill-rule:evenodd;stroke:none;stroke-width:1.59725404"
     transform="matrix(0.62607447,0,0,0.62607447,4,5.6174787)">
    <g
       id="Artboard"
       transform="matrix(1.1408958,0,0,1.1408958,-89.199255,-420.83592)"
       style="fill:#333333;fill-opacity:1;stroke-width:1.39999998">
      <path
         style="fill:#333333;fill-opacity:1;stroke-width:1"
         d="M 9.9570312 5 C 8.7477661 5 7.489243 5.5262231 6.3886719 6.25 L 7.4726562 7.3339844 C 8.1252708 6.7256824 8.9945018 6.3457031 9.9570312 6.3457031 C 11.974995 6.3457031 13.609375 7.9820357 13.609375 10 C 13.609375 10.96253 13.231348 11.831761 12.623047 12.484375 L 13.765625 13.626953 C 15.530961 12.429668 16.845703 10.770784 16.845703 10 C 16.845703 8.7250214 13.183913 5 9.9570312 5 z M 5.1914062 7.1738281 C 3.9846069 8.2313302 3.1542969 9.3998139 3.1542969 10 C 3.1542969 11.2546 6.6395362 15 9.9570312 15 C 10.783085 15 11.623392 14.76892 12.421875 14.402344 L 11.382812 13.365234 C 10.944592 13.551211 10.463079 13.654297 9.9570312 13.654297 C 7.9390683 13.654297 6.3027344 12.017964 6.3027344 10 C 6.3027344 9.4939496 6.4058184 9.0124407 6.5917969 8.5742188 L 5.1914062 7.1738281 z M 9.9570312 7.9804688 C 9.718322 7.9804688 9.4879556 8.0216134 9.2753906 8.0976562 C 9.3621328 8.3345477 9.7282902 9.3580251 9.8554688 9.7148438 L 11.466797 11.328125 C 11.779907 10.972422 11.976562 10.51113 11.976562 10 C 11.976562 8.8848071 11.072222 7.9804688 9.9570312 7.9804688 z M 7.9453125 9.9277344 C 7.9444211 9.9523845 7.9375 9.9751322 7.9375 10 C 7.9375 11.115193 8.8418412 12.019531 9.9570312 12.019531 C 9.9825093 12.019531 10.006001 12.012654 10.03125 12.011719 L 7.9453125 9.9277344 z "
         transform="matrix(1.4,0,0,1.4,72.583525,361)"
         id="eye" />
    </g>
    <path
       style="fill:none;stroke:#333333;stroke-width:2.39588118;stroke-linecap:butt;stroke-linejoin:miter;stroke-miterlimit:4;stroke-dasharray:none;stroke-opacity:1"
       d="M 0.08270382,-4.0806858 20.764303,16.60091"
       id="path819"
       inkscape:connector-curvature="0"
       sodipodi:nodetypes="cc" />
  </g>
</svg>
