<?xml version="1.0" encoding="UTF-8"?>
<svg width="20px" height="14px" viewBox="0 0 20 14" version="1.1" xmlns="http://www.w3.org/2000/svg" xmlns:xlink="http://www.w3.org/1999/xlink">
    <!-- Generator: Sketch 47.1 (45422) - http://www.bohemiancoding.com/sketch -->
    <title>eye</title>
    <desc>Created with Sketch.</desc>
    <defs></defs>
    <g id="Icons" stroke="none" stroke-width="1" fill="none" fill-rule="evenodd">
        <g id="Artboard" transform="translate(-77.000000, -368.000000)" fill="#5E5E5E">
            <path d="M86.5225924,382 C81.8780987,382 77,376.756442 77,375 C77,373.243558 82.0049579,368 86.5225924,368 C91.0402269,368 96.1670485,373.215032 96.1670485,375 C96.1670485,376.784968 91.1670861,382 86.5225924,382 Z M86.5225924,380.115385 C89.3477413,380.115385 91.637977,377.825149 91.637977,375 C91.637977,372.174851 89.3477413,369.884615 86.5225924,369.884615 C83.6974435,369.884615 81.4072078,372.174851 81.4072078,375 C81.4072078,377.825149 83.6974435,380.115385 86.5225924,380.115385 Z M86.5225924,377.826923 C84.9613259,377.826923 83.6956693,376.561267 83.6956693,375 C83.6956693,374.563213 83.7947299,374.149563 83.9716102,373.780291 C84.405588,373.993096 86.5225924,375 86.5225924,375 C86.5225924,375 85.7129939,372.727609 85.5701593,372.337535 C85.8677501,372.231068 86.188399,372.173077 86.5225924,372.173077 C88.0838589,372.173077 89.3495155,373.438733 89.3495155,375 C89.3495155,376.561267 88.0838589,377.826923 86.5225924,377.826923 Z" id="eye"></path>
        </g>
    </g>
</svg>