<?xml version="1.0" encoding="UTF-8" standalone="no"?>
<svg
   xmlns:dc="http://purl.org/dc/elements/1.1/"
   xmlns:cc="http://creativecommons.org/ns#"
   xmlns:rdf="http://www.w3.org/1999/02/22-rdf-syntax-ns#"
   xmlns:svg="http://www.w3.org/2000/svg"
   xmlns="http://www.w3.org/2000/svg"
   xmlns:sodipodi="http://sodipodi.sourceforge.net/DTD/sodipodi-0.dtd"
   xmlns:inkscape="http://www.inkscape.org/namespaces/inkscape"
   width="20"
   height="20"
   viewBox="0 0 20 20"
   version="1.1"
   id="svg11"
   sodipodi:docname="eye.svg"
   inkscape:version="0.92.3 (unknown)">
  <metadata
     id="metadata15">
    <rdf:RDF>
      <cc:Work
         rdf:about="">
        <dc:format>image/svg+xml</dc:format>
        <dc:type
           rdf:resource="http://purl.org/dc/dcmitype/StillImage" />
        <dc:title>eye</dc:title>
      </cc:Work>
    </rdf:RDF>
  </metadata>
  <sodipodi:namedview
     pagecolor="#ffffff"
     bordercolor="#666666"
     borderopacity="1"
     objecttolerance="10"
     gridtolerance="10"
     guidetolerance="10"
     inkscape:pageopacity="0"
     inkscape:pageshadow="2"
     inkscape:window-width="3840"
     inkscape:window-height="2097"
     id="namedview13"
     showgrid="true"
     inkscape:showpageshadow="false"
     inkscape:pagecheckerboard="false"
     inkscape:zoom="15.55"
     inkscape:cx="-24.437299"
     inkscape:cy="5.971061"
     inkscape:window-x="0"
     inkscape:window-y="30"
     inkscape:window-maximized="1"
     inkscape:current-layer="Artboard">
    <inkscape:grid
       type="xygrid"
       id="grid17" />
  </sodipodi:namedview>
  <!-- Generator: Sketch 47.1 (45422) - http://www.bohemiancoding.com/sketch -->
  <title
     id="title2">eye</title>
  <desc
     id="desc4">Created with Sketch.</desc>
  <defs
     id="defs6" />
  <g
     id="Icons"
     style="fill:none;fill-rule:evenodd;stroke:none;stroke-width:1.59725404"
     transform="matrix(0.62607447,0,0,0.62607447,4,5.6174787)">
    <g
       id="Artboard"
       transform="matrix(1.1408958,0,0,1.1408958,-89.199255,-420.83592)"
       style="fill:#333333;fill-opacity:1;stroke-width:1.39999998">
      <path
         d="M 86.522592,382 C 81.878099,382 77,376.75644 77,375 c 0,-1.75644 5.004958,-7 9.522592,-7 4.517635,0 9.644457,5.21503 9.644457,7 0,1.78497 -4.999963,7 -9.644457,7 z m 0,-1.88462 c 2.825149,0 5.115385,-2.29023 5.115385,-5.11538 0,-2.82515 -2.290236,-5.11539 -5.115385,-5.11539 -2.825148,0 -5.115384,2.29024 -5.115384,5.11539 0,2.82515 2.290236,5.11538 5.115384,5.11538 z m 0,-2.28846 c -1.561266,0 -2.826923,-1.26565 -2.826923,-2.82692 0,-0.43679 0.09906,-0.85044 0.275941,-1.21971 0.433978,0.21281 2.550982,1.21971 2.550982,1.21971 0,0 -0.809598,-2.27239 -0.952433,-2.66247 0.297591,-0.10646 0.61824,-0.16445 0.952433,-0.16445 1.561267,0 2.826923,1.26565 2.826923,2.82692 0,1.56127 -1.265656,2.82692 -2.826923,2.82692 z"
         id="eye"
         inkscape:connector-curvature="0"
         style="fill:#9e9e9e;fill-opacity:1;stroke-width:1.39999998" />
    </g>
  </g>
</svg>
