<?xml version="1.0" encoding="UTF-8"?>
<svg width="14px" height="14px" viewBox="0 0 14 14" version="1.1" xmlns="http://www.w3.org/2000/svg" xmlns:xlink="http://www.w3.org/1999/xlink">
    <!-- Generator: Sketch 47.1 (45422) - http://www.bohemiancoding.com/sketch -->
    <title>gear</title>
    <desc>Created with Sketch.</desc>
    <defs></defs>
    <g id="Icons" stroke="none" stroke-width="1" fill="none" fill-rule="evenodd">
        <g id="Artboard" transform="translate(-104.000000, -368.000000)" fill="#5E5E5E">
            <g id="gear" transform="translate(104.000000, 368.000000)">
                <path d="M8,3.92840486 L8,0 L6,0 L6,3.95851688 C6.32793401,3.84575511 6.67984207,3.7845364 7.04604853,3.7845364 C7.37820175,3.7845364 7.69859214,3.83489911 8,3.92840486 Z M8,10.0715951 L8,14 L6,14 L6,10.0414831 C6.32793401,10.1542449 6.67984207,10.2154636 7.04604853,10.2154636 C7.37820175,10.2154636 7.69859214,10.1651009 8,10.0715951 Z" id="Combined-Shape"></path>
                <path d="M3.98912233,6 L1.2246468e-16,6 L0,8 L3.98912233,8 C3.88622532,7.68525136 3.83058492,7.34912343 3.83058492,7 C3.83058492,6.65087657 3.88622532,6.31474864 3.98912233,6 Z M10.1029747,6 L14,6 L14,8 L10.1029747,8 C10.2058717,7.68525136 10.2615121,7.34912343 10.2615121,7 C10.2615121,6.65087657 10.2058717,6.31474864 10.1029747,6 Z" id="Combined-Shape"></path>
                <path d="M4.16212682,8.42365962 L1.34314575,11.2426407 L2.75735931,12.6568542 L5.56131559,9.85289797 C4.95670425,9.53759641 4.46485679,9.03573242 4.16212682,8.42365962 Z M8.46970815,4.11607829 L11.2426407,1.34314575 L12.6568542,2.75735931 L9.8989465,5.51526706 C9.58364494,4.91065572 9.08178095,4.41880826 8.46970815,4.11607829 Z" id="Combined-Shape"></path>
                <path d="M8.46970815,9.88392171 L11.2426407,12.6568542 L12.6568542,11.2426407 L9.8989465,8.48473294 C9.58364494,9.08934428 9.08178095,9.58119174 8.46970815,9.88392171 Z M4.16212682,5.57634038 L1.34314575,2.75735931 L2.75735931,1.34314575 L5.56131559,4.14710203 C4.95670425,4.46240359 4.46485679,4.96426758 4.16212682,5.57634038 Z" id="Combined-Shape"></path>
                <path d="M7.04604853,11.9769757 C4.29734073,11.9769757 2.06907279,9.7487078 2.06907279,7 C2.06907279,4.2512922 4.29734073,2.02302426 7.04604853,2.02302426 C9.79475633,2.02302426 12.0230243,4.2512922 12.0230243,7 C12.0230243,9.7487078 9.79475633,11.9769757 7.04604853,11.9769757 Z M7.04604853,9.86924393 C8.6306882,9.86924393 9.91529246,8.58463967 9.91529246,7 C9.91529246,5.41536033 8.6306882,4.13075607 7.04604853,4.13075607 C5.46140886,4.13075607 4.17680459,5.41536033 4.17680459,7 C4.17680459,8.58463967 5.46140886,9.86924393 7.04604853,9.86924393 Z" id="Combined-Shape"></path>
            </g>
        </g>
    </g>
</svg>