<?xml version="1.0" encoding="UTF-8"?>
<svg width="22px" height="22px" viewBox="0 0 22 22" version="1.1" xmlns="http://www.w3.org/2000/svg" xmlns:xlink="http://www.w3.org/1999/xlink">
    <!-- Generator: Sketch 47.1 (45422) - http://www.bohemiancoding.com/sketch -->
    <title>group</title>
    <desc>Created with Sketch.</desc>
    <defs>
        <path d="M0,0 L4,0 L4,4 L0,4 L0,0 Z M1,1 L1,3 L3,3 L3,1 L1,1 Z" id="path-1"></path>
        <path d="M0,16 L4,16 L4,20 L0,20 L0,16 Z M1,17 L1,19 L3,19 L3,17 L1,17 Z" id="path-2"></path>
        <path d="M16,0 L20,0 L20,4 L16,4 L16,0 Z M17,1 L17,3 L19,3 L19,1 L17,1 Z" id="path-3"></path>
        <path d="M16,16 L20,16 L20,20 L16,20 L16,16 Z M17,17 L17,19 L19,19 L19,17 L17,17 Z" id="path-4"></path>
    </defs>
    <g id="Icons" stroke="none" stroke-width="1" fill="none" fill-rule="evenodd">
        <g id="Artboard" transform="translate(-56.000000, -432.000000)">
            <g id="group" transform="translate(57.000000, 433.000000)">
                <rect id="Rectangle-8" stroke="#5E5E5E" x="1.5" y="1.5" width="17" height="17"></rect>
                <rect id="Rectangle-10" stroke="#979797" x="5.5" y="5.5" width="6" height="6"></rect>
                <rect id="Rectangle-10-Copy" stroke="#979797" x="8.5" y="8.5" width="6" height="6"></rect>
                <g id="Combined-Shape">
                    <use fill="#5E5E5E" fill-rule="evenodd" xlink:href="#path-1"></use>
                    <path stroke="#F2F2F2" stroke-width="1" d="M-0.5,-0.5 L4.5,-0.5 L4.5,4.5 L-0.5,4.5 L-0.5,-0.5 Z M1.5,1.5 L1.5,2.5 L2.5,2.5 L2.5,1.5 L1.5,1.5 Z"></path>
                </g>
                <g id="Combined-Shape-Copy-5">
                    <use fill="#5E5E5E" fill-rule="evenodd" xlink:href="#path-2"></use>
                    <path stroke="#F2F2F2" stroke-width="1" d="M-0.5,15.5 L4.5,15.5 L4.5,20.5 L-0.5,20.5 L-0.5,15.5 Z M1.5,17.5 L1.5,18.5 L2.5,18.5 L2.5,17.5 L1.5,17.5 Z"></path>
                </g>
                <g id="Combined-Shape-Copy-4">
                    <use fill="#5E5E5E" fill-rule="evenodd" xlink:href="#path-3"></use>
                    <path stroke="#F2F2F2" stroke-width="1" d="M15.5,-0.5 L20.5,-0.5 L20.5,4.5 L15.5,4.5 L15.5,-0.5 Z M17.5,1.5 L17.5,2.5 L18.5,2.5 L18.5,1.5 L17.5,1.5 Z"></path>
                </g>
                <g id="Combined-Shape-Copy-6">
                    <use fill="#5E5E5E" fill-rule="evenodd" xlink:href="#path-4"></use>
                    <path stroke="#F2F2F2" stroke-width="1" d="M15.5,15.5 L20.5,15.5 L20.5,20.5 L15.5,20.5 L15.5,15.5 Z M17.5,17.5 L17.5,18.5 L18.5,18.5 L18.5,17.5 L17.5,17.5 Z"></path>
                </g>
            </g>
        </g>
    </g>
</svg>