<?xml version="1.0" encoding="UTF-8"?>
<svg width="17px" height="17px" viewBox="0 0 17 17" version="1.1" xmlns="http://www.w3.org/2000/svg" xmlns:xlink="http://www.w3.org/1999/xlink">
    <!-- Generator: Sketch 47.1 (45422) - http://www.bohemiancoding.com/sketch -->
    <title>pen</title>
    <desc>Created with Sketch.</desc>
    <defs></defs>
    <g id="Icons" stroke="none" stroke-width="1" fill="none" fill-rule="evenodd">
        <g id="Artboard" transform="translate(-120.000000, -400.000000)" stroke="#5E5E5E">
            <g id="pen" transform="translate(121.000000, 400.000000)">
                <path d="M11.4682617,0.658691406 L9.546875,2.81606508 C9.546875,2.81606508 9.85064752,3.1420906 10.017455,3.31889939 C7.78610642,5.52097868 3.9524197,5.27265019 3.30433559,5.27265019 C2.77681588,8.37572674 0.0304054054,16.08448 0.0304054054,16.08448 C0.0304054054,16.08448 7.01984797,13.6941295 10.9833193,12.920797 C10.9750141,12.762932 10.8852759,8.13062419 13.15442,6.40756218 C13.15442,6.40756218 13.7121311,6.94802517 13.7121311,6.94802517 L15.8537598,5.27265019" id="Path-5"></path>
                <path d="M0.040259009,16.0734294 L5.77777778,10.3333333" id="Path-6"></path>
                <ellipse id="Oval-3" cx="6.87864335" cy="9.33281654" rx="1.80153683" ry="1.76925065"></ellipse>
                <path d="M10.0160473,3.31642846 L13.1552646,6.40883196" id="Path-7"></path>
            </g>
        </g>
    </g>
</svg>