<?xml version="1.0" encoding="UTF-8"?>
<svg width="18px" height="18px" viewBox="0 0 18 18" version="1.1" xmlns="http://www.w3.org/2000/svg" xmlns:xlink="http://www.w3.org/1999/xlink">
    <!-- Generator: Sketch 47.1 (45422) - http://www.bohemiancoding.com/sketch -->
    <title>pixels</title>
    <desc>Created with Sketch.</desc>
    <defs></defs>
    <g id="Icons" stroke="none" stroke-width="1" fill="none" fill-rule="evenodd">
        <g id="Artboard" transform="translate(-120.000000, -468.000000)" stroke="#5E5E5E">
            <g id="pixels" transform="translate(120.000000, 468.000000)">
                <rect id="Rectangle-8" x="0.5" y="0.5" width="17" height="17"></rect>
                <g id="Group-3" opacity="0.401268116" transform="translate(1.000000, 2.000000)" stroke-linecap="square">
                    <path d="M3.55271368e-14,1 L16,1" id="Line"></path>
                    <path d="M3.55271368e-14,4 L16,4" id="Line-Copy-18"></path>
                    <path d="M3.55271368e-14,7 L16,7" id="Line-Copy-19"></path>
                    <path d="M3.55271368e-14,10 L16,10" id="Line-Copy-20"></path>
                    <path d="M3.55271368e-14,13 L16,13" id="Line-Copy-21"></path>
                </g>
                <g id="Group-3-Copy" opacity="0.401268116" transform="translate(9.000000, 9.000000) rotate(-270.000000) translate(-9.000000, -9.000000) translate(1.000000, 2.000000)" stroke-linecap="square">
                    <path d="M3.55271368e-14,1 L16,1" id="Line"></path>
                    <path d="M3.55271368e-14,4 L16,4" id="Line-Copy-18"></path>
                    <path d="M3.55271368e-14,7 L16,7" id="Line-Copy-19"></path>
                    <path d="M3.55271368e-14,10 L16,10" id="Line-Copy-20"></path>
                    <path d="M3.55271368e-14,13 L16,13" id="Line-Copy-21"></path>
                </g>
            </g>
        </g>
    </g>
</svg>